<?xml version="1.0" standalone="no"?>
<!DOCTYPE svg PUBLIC "-//W3C//DTD SVG 20010904//EN"
 "http://www.w3.org/TR/2001/REC-SVG-20010904/DTD/svg10.dtd">
<svg version="1.0" xmlns="http://www.w3.org/2000/svg"
 width="16.000000pt" height="16.000000pt" viewBox="0 0 16.000000 16.000000"
 preserveAspectRatio="xMidYMid meet">

<g transform="translate(0.000000,16.000000) scale(0.100000,-0.100000)"
fill="#000000" stroke="none">
<path d="M25 129 c-4 -6 -5 -12 -2 -15 2 -3 7 2 10 11 7 17 1 20 -8 4z"/>
<path d="M116 127 c3 -10 9 -15 12 -12 3 3 0 11 -7 18 -10 9 -11 8 -5 -6z"/>
<path d="M50 96 c0 -11 9 -16 26 -16 31 0 28 23 -4 28 -15 2 -22 -2 -22 -12z"/>
<path d="M117 76 c-4 -10 -13 -13 -24 -10 -17 5 -17 5 0 -6 23 -15 13 -30 -21
-30 -22 0 -24 2 -12 11 13 9 13 10 0 6 -8 -2 -23 0 -32 5 -10 5 -18 5 -18 0 0
-10 44 -32 65 -32 20 0 65 22 65 31 0 5 -8 5 -17 2 -16 -6 -16 -5 -4 10 8 10
12 20 9 23 -3 3 -8 -2 -11 -10z"/>
</g>
</svg>
